<mxfile host="app.diagrams.net" modified="2024-03-06T08:14:59.077Z" agent="Mozilla/5.0 (Windows NT 10.0; Win64; x64) AppleWebKit/537.36 (KHTML, like Gecko) Chrome/121.0.0.0 Safari/537.36 OPR/107.0.0.0" version="24.0.2" etag="SnPAWeTkzAMRPa_PKx9P" type="github">
  <diagram name="Page-1" id="qO7JqH-wDl58y_Bdmb8k">
    <mxGraphModel>
      <root>
        <mxCell id="0" />
        <mxCell id="1" parent="0" />
      </root>
    </mxGraphModel>
  </diagram>
</mxfile>
